# xmcd
#
# Track frame offsets:
#	150
#	16161
#	32276
#	47927
#	65281
#	83098
#	99523
#	115846
#
# Disc length: 1774 seconds
#
# Revision: 1
# Processed by: cddbd v1.5.1PL0 Copyright (c) Steve Scherf et al.
# Submitted via: EasyCDDAExtractor 7.7.1.2
#
DISCID=5506ec08
DTITLE=Various Artist - Unobtainable
DYEAR=2005
DGENRE=Soul
TTITLE0=Cherry - Unobtainable [Blue Bass Mix]
TTITLE1=Cherry - Tik Tak Toe
TTITLE2=Cherry featuring Nai'la Boss - Snake [Dholak Dub]
TTITLE3=Cherry - Oh Oh Oh
TTITLE4=Cherry - Down Wi Dat
TTITLE5=Cherry featuring Nai'la Boss - Bounce
TTITLE6=Cherry featuring Lantan - Dirty Cash
TTITLE7=Cherry - Cheaptalkin
EXTD=
EXTT0=
EXTT1=
EXTT2=
EXTT3=
EXTT4=
EXTT5=
EXTT6=
EXTT7=
PLAYORDER=
